<svg id="root" width="100%" height="100%" viewBox="0 0 24 24" xmlns="http://www.w3.org/2000/svg">
<path d="M21.622 10.3594C19.9746 10.6229 19.1764 11.0223 19.1764 11.0223L15.5081 1.49077C18.2571 0.517344 21.0777 0.0131443 23.9999 0V10.1443C23.1661 10.1421 22.4427 10.2141 21.622 10.3594Z" />
<path d="M14.2029 14.3564C14.751 13.8002 15.8273 12.9222 15.8273 12.9222L9.79063 4.45618C7.38796 6.15088 5.33911 8.28343 3.75562 10.7378L12.7217 16.1495C12.7217 16.1495 13.7092 14.8511 14.2029 14.3564Z" />
<path d="M10.3997 23.5564C10.4671 22.1501 10.7239 20.7588 11.1634 19.4188C11.2457 19.1762 11.3033 18.9887 11.3033 18.9887L1.167 16.2529C0.385014 18.7259 -0.00845259 21.3015 0.00013767 23.8911V23.9999H10.3816C10.3816 23.9999 10.3866 23.8005 10.3997 23.5564Z" />
<path d="M23.9999 13.7987V19.6162C21.3429 19.7175 19.8619 21.3658 19.8619 23.8987L19.8621 23.9239C19.8624 23.9488 19.8627 23.974 19.8603 24.0001H14.0417V23.8913C14.0417 18.0657 17.9699 13.9216 23.9999 13.7987Z" />
</svg>