<svg width="490" height="490" viewBox="0 0 490 490" fill="none" xmlns="http://www.w3.org/2000/svg">
<path d="M244.534 244.801C244.534 205.442 276.441 173.534 315.801 173.534C355.16 173.534 387.068 205.442 387.068 244.801C387.068 284.161 355.16 316.068 315.801 316.068C276.441 316.068 244.534 284.161 244.534 244.801Z" fill="#1ABCFE"/>
<path d="M102 387.335C102 347.976 133.907 316.068 173.267 316.068H244.534V387.335C244.534 426.695 212.627 458.602 173.267 458.602C133.907 458.602 102 426.695 102 387.335Z" fill="#0ACF83"/>
<path d="M244.534 31.0001V173.534H315.801C355.161 173.534 387.068 141.627 387.068 102.267C387.068 62.9074 355.161 31.0001 315.801 31.0001H244.534Z" fill="#FF7262"/>
<path d="M102 102.267C102 141.627 133.907 173.534 173.267 173.534H244.534V31H173.267C133.907 31 102 62.9073 102 102.267Z" fill="#F24E1E"/>
<path d="M102 244.801C102 284.161 133.907 316.068 173.267 316.068H244.534V173.534H173.267C133.907 173.534 102 205.442 102 244.801Z" fill="#A259FF"/>
</svg>
